<svg width="85" height="20" viewBox="0 0 85 20" fill="none" xmlns="http://www.w3.org/2000/svg">
<path d="M6.63 19.3C5.69 19.3 4.925 19.11 4.335 18.73C3.745 18.34 3.31 17.845 3.03 17.245C2.75 16.645 2.61 16.02 2.61 15.37V7.06H0.48L0.81 4H2.61V0.7L6.33 0.309999V4H9.63V7.06H6.33V13.84C6.33 14.6 6.375 15.15 6.465 15.49C6.555 15.82 6.76 16.03 7.08 16.12C7.4 16.2 7.91 16.24 8.61 16.24H9.63L9.3 19.3H6.63ZM22.2825 19.3C20.4725 19.3 18.9625 18.94 17.7525 18.22C16.5525 17.49 15.6525 16.53 15.0525 15.34C14.4525 14.14 14.1525 12.83 14.1525 11.41C14.1525 10.04 14.4325 8.775 14.9925 7.615C15.5625 6.455 16.3925 5.525 17.4825 4.825C18.5725 4.115 19.9025 3.76 21.4725 3.76C22.9125 3.76 24.1125 4.055 25.0725 4.645C26.0325 5.235 26.7525 6.025 27.2325 7.015C27.7125 7.995 27.9525 9.08 27.9525 10.27C27.9525 10.6 27.9325 10.935 27.8925 11.275C27.8525 11.605 27.7925 11.95 27.7125 12.31H18.0225C18.1625 13.24 18.4525 13.995 18.8925 14.575C19.3425 15.145 19.8875 15.565 20.5275 15.835C21.1775 16.105 21.8725 16.24 22.6125 16.24C23.4825 16.24 24.2925 16.13 25.0425 15.91C25.7925 15.68 26.4825 15.38 27.1125 15.01L27.2925 18.16C26.7225 18.46 26.0125 18.725 25.1625 18.955C24.3125 19.185 23.3525 19.3 22.2825 19.3ZM18.1125 9.79H24.1725C24.1725 9.34 24.0875 8.89 23.9175 8.44C23.7475 7.98 23.4625 7.595 23.0625 7.285C22.6725 6.975 22.1425 6.82 21.4725 6.82C20.5125 6.82 19.7575 7.1 19.2075 7.66C18.6575 8.22 18.2925 8.93 18.1125 9.79ZM36.732 19.3C35.932 19.3 35.202 19.125 34.542 18.775C33.882 18.415 33.357 17.9 32.967 17.23C32.577 16.56 32.382 15.75 32.382 14.8C32.382 13.95 32.577 13.225 32.967 12.625C33.367 12.015 33.887 11.51 34.527 11.11C35.177 10.7 35.877 10.38 36.627 10.15C37.387 9.91 38.132 9.735 38.862 9.625C39.602 9.515 40.252 9.45 40.812 9.43C40.772 8.57 40.552 7.945 40.152 7.555C39.752 7.165 39.072 6.97 38.112 6.97C37.442 6.97 36.787 7.065 36.147 7.255C35.517 7.435 34.802 7.72 34.002 8.11L33.672 5.08C34.572 4.64 35.472 4.31 36.372 4.09C37.282 3.87 38.202 3.76 39.132 3.76C40.252 3.76 41.217 3.96 42.027 4.36C42.837 4.76 43.462 5.405 43.902 6.295C44.342 7.175 44.562 8.34 44.562 9.79V13.84C44.562 14.59 44.597 15.135 44.667 15.475C44.737 15.805 44.867 16.015 45.057 16.105C45.247 16.195 45.522 16.24 45.882 16.24H46.362L46.032 19.3H44.682C44.122 19.3 43.622 19.225 43.182 19.075C42.752 18.935 42.382 18.735 42.072 18.475C41.762 18.215 41.512 17.91 41.322 17.56C40.832 18.11 40.167 18.54 39.327 18.85C38.497 19.15 37.632 19.3 36.732 19.3ZM38.292 16.45C38.622 16.45 39.032 16.365 39.522 16.195C40.012 16.015 40.452 15.74 40.842 15.37V11.95C40.142 11.98 39.442 12.095 38.742 12.295C38.042 12.495 37.457 12.79 36.987 13.18C36.517 13.57 36.282 14.06 36.282 14.65C36.282 15.26 36.442 15.715 36.762 16.015C37.082 16.305 37.592 16.45 38.292 16.45ZM51.4334 19V4H54.6134L54.8534 6.19L54.3134 5.53C54.8834 5.08 55.5634 4.675 56.3534 4.315C57.1534 3.945 58.0834 3.76 59.1434 3.76C59.9434 3.76 60.6484 3.88 61.2584 4.12C61.8784 4.35 62.4084 4.685 62.8484 5.125C63.2884 5.555 63.6434 6.07 63.9134 6.67L63.0134 6.46C63.4934 5.6 64.1934 4.935 65.1134 4.465C66.0434 3.995 67.0934 3.76 68.2634 3.76C69.6434 3.76 70.7684 4.045 71.6384 4.615C72.5084 5.185 73.1484 5.99 73.5584 7.03C73.9684 8.06 74.1734 9.27 74.1734 10.66V19H70.4534V10.93C70.4534 9.53 70.2334 8.495 69.7934 7.825C69.3634 7.155 68.6434 6.82 67.6334 6.82C67.1334 6.82 66.6934 6.91 66.3134 7.09C65.9434 7.26 65.6334 7.515 65.3834 7.855C65.1434 8.185 64.9634 8.59 64.8434 9.07C64.7234 9.54 64.6634 10.07 64.6634 10.66V19H60.9434V10.93C60.9434 10 60.8434 9.23 60.6434 8.62C60.4534 8.01 60.1434 7.56 59.7134 7.27C59.2934 6.97 58.7434 6.82 58.0634 6.82C57.1934 6.82 56.4784 7.025 55.9184 7.435C55.3684 7.835 54.8834 8.38 54.4634 9.07L55.1534 7.06V19H51.4334Z" fill="white"/>
<path d="M80.1476 19V14.92H84.0476V19H80.1476Z" fill="#0BBEF2"/>
</svg>
